<?xml version="1.0" encoding="UTF-8"?>
<svg xmlns="http://www.w3.org/2000/svg" viewBox="0 0 1000 500" width="1000" height="500"
     data-schema-kind="road" data-viewbox="1000x500" data-bb="400,372" fill="none">
  <title>AetherRide Bike Schema — road</title>
  <desc>Diamond-frame side view. Shared viewBox 0 0 1000 500, locked BB (400,372). Status hotspots overlaid by app.</desc>

  <line x1="80" y1="420" x2="920" y2="420" stroke="#243830" stroke-width="4"/>

  <circle class="tire" cx="220" cy="420" r="88" fill="none" stroke="#4B5563" stroke-width="8"/>
  <circle class="rim" cx="220" cy="420" r="82" fill="none" stroke="#A8B5AE" stroke-width="4"/>
  <circle class="tire" cx="604" cy="420" r="88" fill="none" stroke="#4B5563" stroke-width="8"/>
  <circle class="rim" cx="604" cy="420" r="82" fill="none" stroke="#A8B5AE" stroke-width="4"/>

  <g id="part-fork">
    <line x1="288" y1="158" x2="220" y2="420" stroke="#FF6B35" stroke-width="8" stroke-linecap="round"/>
  </g>

  <g id="part-frame" stroke="#1A5C45" stroke-linecap="round" fill="none">
    <line id="tube-ht" x1="288" y1="158" x2="292" y2="186" stroke-width="14"/>
    <line id="tube-tt" x1="288" y1="158" x2="408" y2="152" stroke-width="12"/>
    <line id="tube-dt" x1="288" y1="158" x2="400" y2="372" stroke-width="12"/>
    <line id="tube-st" x1="408" y1="152" x2="400" y2="372" stroke-width="12"/>
    <line id="tube-cs" x1="400" y1="372" x2="604" y2="420" stroke-width="9"/>
    <line id="tube-ss" x1="408" y1="192" x2="604" y2="420" stroke-width="9"/>
  </g>

  <line id="part-stem" x1="288" y1="158" x2="232" y2="128" stroke="#F0F5F2" stroke-width="7" stroke-linecap="round"/>

  <g id="part-handlebar">
    <line x1="222" y1="128" x2="272" y2="132" stroke="#F0F5F2" stroke-width="8" stroke-linecap="round"/>
    <path d="M222 128 C204 140 206 176 224 186" stroke="#F0F5F2" stroke-width="7" fill="none"/>
  </g>
  <line id="part-seatpost" x1="408" y1="152" x2="408" y2="134" stroke="#A8B5AE" stroke-width="8"/>
  <ellipse id="part-saddle" cx="418" cy="130" rx="36" ry="11" fill="#F0F5F2"/>

  <g id="part-crank">
    <circle cx="400" cy="372" r="22" fill="none" stroke="#FF6B35" stroke-width="5"/>
    <line x1="400" y1="372" x2="436" y2="402" stroke="#F0F5F2" stroke-width="7" stroke-linecap="round"/>
  </g>
  <line id="part-chain" x1="418" y1="378" x2="592" y2="410" stroke="#6B7280" stroke-width="3"/>

</svg>
